<?xml version="1.0" encoding="UTF-8" standalone="no"?>
<svg width="27px" height="30px" viewBox="0 0 27 30" version="1.1" xmlns="http://www.w3.org/2000/svg" xmlns:xlink="http://www.w3.org/1999/xlink">
    <!-- Generator: Sketch 42 (36781) - http://www.bohemiancoding.com/sketch -->
    <title>Shape</title>
    <desc>Created with Sketch.</desc>
    <defs></defs>
    <g id="Page-1" stroke="none" stroke-width="1" fill="none" fill-rule="evenodd">
        <g id="5" transform="translate(-167.000000, -43.000000)" fill="#FFFFFF">
            <path d="M188.435643,67.2693135 L185.405373,57.9995532 L193.337488,52.2720838 L183.53254,52.2720838 L180.501909,43.002681 L180.50101,43.0001787 L190.307577,43.0001787 L193.338747,52.2711902 L193.338747,52.2710114 L193.341265,52.2695816 C195.101879,57.6479872 193.288752,63.7652712 188.435643,67.2693135 L188.435643,67.2693135 L188.435643,67.2693135 Z M172.567816,67.2693135 L172.565298,67.2711008 L180.499572,73 L188.435643,67.2694922 L180.502089,61.5404143 L172.567816,67.2693135 L172.567816,67.2693135 L172.567816,67.2693135 Z M167.663813,52.2697603 L167.663813,52.2697603 C165.810762,57.9393205 167.961804,63.946863 172.566197,67.2703859 L172.566917,67.2675262 L175.597547,57.998302 L167.66705,52.2719051 L177.469661,52.2719051 L180.500471,43.0025022 L180.50119,43 L170.694083,43 L167.663813,52.2697603 L167.663813,52.2697603 L167.663813,52.2697603 Z" id="Shape"></path>
        </g>
    </g>
</svg>